<?xml version="1.0" standalone="no"?>
<!DOCTYPE svg PUBLIC "-//W3C//DTD SVG 20010904//EN"
 "http://www.w3.org/TR/2001/REC-SVG-20010904/DTD/svg10.dtd">
<svg version="1.0" xmlns="http://www.w3.org/2000/svg"
 width="500.000000pt" height="500.000000pt" viewBox="0 0 500.000000 500.000000"
 preserveAspectRatio="xMidYMid meet">

<g transform="translate(0.000000,500.000000) scale(0.100000,-0.100000)"
fill="#000000" stroke="none">
<path d="M2130 4970 c-564 -87 -1109 -378 -1477 -790 -349 -390 -556 -835
-628 -1354 -16 -118 -19 -490 -5 -616 119 -1023 862 -1872 1864 -2130 171 -43
303 -59 563 -66 253 -7 372 3 583 46 491 102 992 393 1324 769 329 372 512
749 608 1251 25 135 37 559 19 708 -91 742 -493 1393 -1112 1799 -274 180
-612 315 -939 374 -180 32 -616 37 -800 9z m1760 -1734 c0 -4 -25 -22 -210
-155 -52 -37 -232 -167 -400 -288 -168 -121 -314 -225 -325 -230 -11 -6 -85
-25 -165 -43 l-145 -33 -70 23 c-38 13 -73 26 -78 30 -9 7 1366 700 1391 700
1 0 2 -2 2 -4z m-165 -15 c-6 -5 -89 -34 -185 -64 -135 -43 -229 -65 -415 -97
-202 -35 -260 -49 -370 -89 -71 -27 -321 -115 -555 -195 -234 -81 -483 -167
-554 -191 -71 -25 -130 -44 -132 -42 -1 1 149 93 334 204 185 112 421 254 524
316 l188 114 227 7 c337 10 716 26 818 35 132 12 130 12 120 2z m-745 -335 c0
-5 -79 -51 -340 -201 -202 -116 -205 -117 -245 -107 -58 15 -315 106 -315 112
0 3 74 29 164 58 l164 52 140 -35 141 -36 143 80 c152 85 148 83 148 77z m881
-567 c19 -9 41 -25 49 -34 12 -14 10 -20 -12 -41 l-25 -25 -38 22 c-76 45
-168 20 -205 -56 -42 -87 -13 -182 67 -217 32 -14 55 -18 81 -13 61 11 72 21
72 65 l0 40 -50 0 -50 0 0 35 0 35 90 0 90 0 0 -95 0 -95 -37 -24 c-160 -105
-366 2 -367 189 -1 177 179 293 335 214z m-2443 -21 l3 -38 -65 0 -66 0 0
-191 0 -190 -42 3 -43 3 -3 188 -2 187 -65 0 -65 0 0 33 c0 19 3 37 7 41 4 3
81 5 172 4 l166 -3 3 -37z m327 23 c51 -23 75 -50 85 -96 11 -50 -6 -104 -46
-142 -19 -17 -34 -34 -34 -37 0 -3 20 -40 45 -82 25 -41 45 -78 45 -80 0 -3
-21 -4 -46 -2 l-47 3 -44 83 c-44 81 -45 82 -84 82 l-38 0 -3 -82 -3 -83 -40
0 -40 0 -3 215 c-1 118 0 220 2 227 9 22 201 17 251 -6z m497 -201 c47 -118
87 -221 87 -228 1 -9 -11 -12 -41 -10 -40 3 -43 5 -59 48 l-17 45 -101 3 -102
3 -21 -51 c-20 -48 -22 -50 -60 -50 -37 0 -40 2 -35 23 4 18 91 234 160 400
16 37 18 38 59 35 l42 -3 88 -215z m409 198 c52 -22 105 -81 119 -133 31 -112
-7 -219 -99 -273 -41 -24 -58 -27 -158 -31 l-113 -3 0 232 0 233 108 -5 c64
-3 121 -11 143 -20z m299 -208 l0 -230 -40 0 -40 0 0 230 0 230 40 0 40 0 0
-230z m222 173 c24 -32 75 -102 113 -156 l70 -98 5 153 5 153 38 3 37 3 0
-230 0 -231 -33 0 c-41 0 -45 5 -168 179 l-94 134 -3 -157 -3 -156 -39 0 -40
0 0 230 0 230 34 0 c31 0 40 -7 78 -57z"/>
<path d="M1580 2190 l0 -70 59 0 c72 0 111 25 111 71 0 49 -30 69 -105 69
l-65 0 0 -70z"/>
<path d="M2076 2162 c-16 -42 -31 -83 -33 -89 -4 -10 13 -13 67 -13 54 0 71 3
67 13 -2 6 -17 47 -33 89 -16 43 -31 78 -34 78 -3 0 -18 -35 -34 -78z"/>
<path d="M2480 2110 l0 -150 59 0 c44 0 66 5 91 23 91 62 92 194 1 254 -26 17
-48 23 -92 23 l-59 0 0 -150z"/>
</g>
</svg>
